#!OML:ASF F:\VICON\USERDATA\INSTALL\rory3\rory3.ASF
:FULLY-SPECIFIED
:DEGREES
19
root -0.6419752836725413 17.683203670834967 -13.638689815899408 -1.4434251713410928 6.873759667474905 -3.886074780741488
lfemur -23.75149373524815 -3.501824276782206 -21.614797986682635
ltibia 40.95960054694761
lfoot -11.770493448433276 -10.71139304339339
ltoes -1.5494360793424402
rfemur -7.638074019281032 -2.109067861983896 27.04960007971789
rtibia 96.09898219985286
rfoot 21.07318365347097 -13.163587860044919
rtoes 16.75528769957672
lowerback 16.497285641361255 1.0708664147480071 2.768765984589477
upperback -0.0810312943617934 2.0672155086433897 1.1520133925428229
thorax -9.314909306352055 0.891517930953763 -0.8248256193138291
lowerneck -18.957094112938254 -5.346233447203205 -1.6914257790619123
upperneck 15.242904182475762 -7.620282112706145 4.051618636700847
head 8.059292829929596 -3.3001633774943206 0.6760134575698125
lclavicle -9.152774339847445e-16 -7.746725139183434e-16
lhumerus -61.08468459399016 -12.545188881431436 100.14098192457654
lradius 104.07298986979939
lwrist 33.45058829796125
lhand -25.856206542779212 0.7974985326453723
lfingers 7.125020000000057
lthumb 0.6846004567303206 30.776111507333685
rclavicle -9.152774339847445e-16 -7.746725139183434e-16
rhumerus -48.454291764413675 14.403487431183397 -101.75298540677781
rradius 104.67298970995884
rwrist -7.877907043840358
rhand -19.72159002324048 40.73908757964961
rfingers 7.125020000000057
rthumb 6.6085599770313035 10.86218764952286
20
root -0.646633214923163 17.474908519565 -12.685890228701599 -1.1420260252044043 6.63226031454453 -2.519608718467231
lfemur -22.372294499709515 -3.797763519914433 -23.298895461057292
ltibia 45.080998918858235
lfoot -17.15248957867879 -7.689816900995311
ltoes 2.0965100648138675
rfemur -13.30770089562047 -3.7861038889492034 23.902404932258893
rtibia 102.40697984232864
rfoot 20.997883706007745 -9.952804036240925
rtoes 15.041689265824779
lowerback 16.84358442334759 1.0303266853965054 0.9001367565176699
upperback 0.15046710622511406 1.6215373637770742 0.8064185324506169
thorax -9.309279333844964 0.7562972140732036 -0.036899578045832326
lowerneck -19.70269059368662 -5.254084256292822 -1.3674709888108474
upperneck 15.087904476578366 -7.553942498628933 3.9693790697038733
head 8.117182437396256 -3.2486040926277644 0.5904328734601846
lclavicle -9.152775159745956e-16 -7.746724997894612e-16
lhumerus -56.908787526497164 -14.232586984702488 100.1769818753987
lradius 104.52998976175591
lwrist 34.90128727926725
lhand -24.961009341551467 0.056301515164708604
lfingers 7.125020000000057
lthumb 1.5492606572760297 30.030412193893127
rclavicle -9.152775159745956e-16 -7.746724997894612e-16
rhumerus -49.23729116922881 13.324788076073016 -101.86498530302357
rradius 101.6549904347325
rwrist -6.520558172247547
rhand -22.246575434986305 37.44369128166227
rfingers 7.125020000000057
rthumb 4.170694571628387 7.504821422413291
21
root -0.4211115169474523 17.146504325358837 -4.112791636742076 1.7069950917235288 5.300067229208292 1.8038752959484183
lfemur -21.67304070094076 -2.0055422258753475 -26.887209729049598
ltibia 47.103405364275595
lfoot -22.425326062988447 -2.494115713106763
ltoes 1.0269738916948254
rfemur -18.258522395510873 -4.185674467636575 19.583790546445517
rtibia 106.89617819083088
rfoot 13.844569898809551 -7.7035504709897795
rtoes 15.182497796445036
lowerback 17.576867388347097 1.5214575947909739 -1.881310018285092
upperback -0.07275022563740913 1.643480638714911 -0.6520297565060973
thorax -9.843688680934678 0.8548192659697782 0.055548582619396214
lowerneck -19.897810679538193 -5.359099930946997 -1.8077695281403026
upperneck 13.214653809000298 -7.557528106853662 4.384697488840762
head 7.647212966870135 -3.278188901356903 0.8646997751335125
lclavicle -1.358019853905083e-15 -1.1174891847324179e-15
lhumerus -47.13137181577063 -13.799132853118394 97.67245988584453
lradius 104.19365278875787
lwrist 32.19100511699709
lhand -25.46924069937654 5.965305131356079
lfingers 7.125020000000056
lthumb 1.0580222192979118 35.86428472725148
rclavicle -1.358019853905083e-15 -1.1174891847324179e-15
rhumerus -43.63438781181352 8.429986048656435 -98.48727827850593
rradius 97.4990464564751
rwrist -12.664747529180545
rhand -20.794884830992352 36.14642087302468
rfingers 7.125020000000056
rthumb 5.571778993792113 7.132332467390878
22
root -0.395696588478613 17.015213783763915 -5.842007613266093 2.5236549467285316 4.8606781243973725 2.265109849086056
lfemur -20.1001494290351 -1.8018102422145854 -27.452641551749938
ltibia 48.5613602623988
lfoot -25.32547959586972 0.6618616534768087
ltoes -0.9949961062762362
rfemur -24.502283989247626 -4.684371632449874 18.470477924921973
rtibia 112.20128481653913
rfoot 11.322908268453403 -6.867421736365461
rtoes 14.217934758458574
lowerback 18.042367446806185 1.409579231347318 -2.6868261899576398
upperback -0.11031893093878387 1.3408794083761424 -0.8136091262212661
thorax -10.172811026913303 0.7436312249067569 0.39763154186494204
lowerneck -20.2442621855518 -5.271959681942735 -1.835943804249968
upperneck 12.282113196234704 -7.442284229769633 4.569690906936717
head 7.392217606430077 -3.203278026552572 0.9445086458390513
lclavicle -1.519067022173863e-15 -1.2421884776601828e-15
lhumerus -44.06800548330555 -14.843896167092888 97.77457648667325
lradius 105.18077200311609
lwrist 32.67245126674973
lhand -24.75263499614039 6.4004087636342355
lfingers 7.125020000000055
lthumb 1.7500094138864488 36.298157229009554
rclavicle -1.519067022173863e-15 -1.2421884776601828e-15
rhumerus -46.21590186376399 7.458453622999331 -98.76142484371007
rradius 98.36419143225392
rwrist -13.77049503184324
rhand -20.684271584034253 36.23789494521855
rfingers 7.125020000000055
rthumb 5.678086287913088 7.798133233085091
23
root -0.4026516758996206 16.97274768559442 -5.632639175593889 2.945677100349884 4.347374098802435 2.510338901740201
lfemur -17.679874951268683 -1.9935696776767806 -27.89700462570499
ltibia 48.37308655377069
lfoot -27.527046156706724 2.487634989297222
ltoes -4.235710720810018
rfemur -30.91162078545866 -5.216448977015249 17.785796257165963
rtibia 114.48522286805843
rfoot 9.26368296729033 -6.531408907070696
rtoes 11.671327641079753
lowerback 18.10279852906645 1.1206948844012965 -3.319708489717322
upperback -0.2125936184084296 0.8467640705607784 -0.845202856205167
thorax -10.386687193651314 0.5391069912421216 0.7762833283411961
lowerneck -20.36580229096232 -5.128305350506235 -1.8789632418385576
upperneck 11.854110393568227 -7.260368887061903 4.61744899546321
head 7.256476608334637 -3.1021361346805456 0.9915472548541177
lclavicle -1.958577843082989e-15 -1.5825029834169402e-15
lhumerus -41.4016522141248 -16.18206979426992 97.52083884105008
lradius 106.11099418477562
lwrist 32.98126021314269
lhand -24.70063995501406 4.844175930265003
lfingers 7.125020000000054
lthumb 1.8001848332848531 34.74177228098871
rclavicle -1.958577843082989e-15 -1.5825029834169402e-15
rhumerus -49.10651575988121 7.305364824970029 -99.56756568292325
rradius 99.24189052326571
rwrist -14.986331470093415
rhand -20.556260983523135 35.144900811961485
rfingers 7.125020000000054
rthumb 5.801553554178688 7.96651572249929
24
root -0.41287224008092127 17.004102649850264 -5.534239278501243 3.464910068227603 3.847397479353051 2.3697210260982025
lfemur -14.649826032520705 -2.000580104578815 -27.82344367342773
ltibia 47.87579189530638
lfoot -27.057205726643595 3.1156151367655935
ltoes -7.029696625760938
rfemur -36.517106830960834 -5.780477353187312 18.284412269017515
rtibia 115.17370370489729
rfoot 7.0741838890822315 -6.408748600699901
rtoes 8.893554236274301
lowerback 18.0737278455475 0.7473355455875217 -3.4924878797814616
upperback -0.3531260777053418 0.32598798465967593 -0.6621908294871
thorax -10.541652142319696 0.3096754608385123 1.1934627666766728
lowerneck -20.364629096346942 -4.831244092593987 -1.8045193892982918
upperneck 11.63030670216865 -6.867171818856773 4.533914508655953
head 7.154772136162434 -2.9122258204573637 0.9979652383650178
lclavicle -1.9966157996629186e-15 -1.6119558932171002e-15
lhumerus -38.921137944151184 -16.69169838278529 97.17994878168052
lradius 107.79251912704422
lwrist 33.41093178649927
lhand -24.42809864758816 4.115446034839259
lfingers 7.125020000000054
lthumb 2.0633458953633284 34.01408538104826
rclavicle -1.9966157996629186e-15 -1.6119558932171002e-15
rhumerus -51.70558318095141 7.5562247075239135 -99.80520260155578
rradius 100.89638273042733
rwrist -15.902083502616481
rhand -20.289284821936945 34.55008630601748
rfingers 7.125020000000054
rthumb 6.059194541499981 8.281183667680299
25
root -0.3952156128470955 17.111475807155408 -4.685282972468613 4.000811763042792 3.515150467364435 2.1146707752904956
lfemur -11.115086277918463 -1.9740727069914454 -27.483662050531734
ltibia 45.93157162075586
lfoot -24.324250289805562 2.3799255702607915
ltoes -11.680390591905825
rfemur -40.87426192968395 -5.726002269404635 19.084155547638154
rtibia 112.77852429526004
rfoot 4.44249321632044 -6.113544487747391
rtoes 6.396462972103613
lowerback 17.833288336638383 0.2987837291172858 -3.480728500749027
upperback -0.4868980555922117 -0.25355207777495836 -0.3815556781508447
thorax -10.54965885649218 0.045269577345978196 1.6267959057956431
lowerneck -20.397066691656388 -4.551488126391213 -1.7647269218727137
upperneck 11.530649233924148 -6.473317828788336 4.357294707324892
head 7.097529305487255 -2.733240009560698 0.9771698780832255
lclavicle -1.9675119438033492e-15 -1.5894207014868805e-15
lhumerus -36.750069607069705 -16.446288136778463 96.75783474522638
lradius 109.72166688124611
lwrist 34.521986137296494
lhand -24.17263417821502 3.5320212405894527
lfingers 7.125020000000054
lthumb 2.3099308157714002 33.42369594954688
rclavicle -1.9675119438033492e-15 -1.5894207014868805e-15
rhumerus -54.22480174017033 8.246496783104464 -100.22638553421926
rradius 103.26080028728563
rwrist -16.683722600496896
rhand -20.199388425973563 34.64725751459725
rfingers 7.125020000000054
rthumb 6.1460327934975005 8.779667463995647
